<svg xmlns="http://www.w3.org/2000/svg" width="1800" height="600" viewBox="0 0 1800 600" role="img" aria-labelledby="title desc">
  <title id="title">WRAPPED.CO primary logo</title>
  <desc id="desc">A folded ribbon flame above a widely spaced serif wordmark.</desc>
  <rect width="1800" height="600" fill="#141210"/>
  <g transform="translate(900 145)">
    <path d="M0-76 C47-42 45-6 4 18 C-22 34-25 57-6 82 C-65 49-65 7-20-21 C7-38 13-55 0-76Z" fill="#B08A5A"/>
    <path d="M-20-21 C7-7 23 10 4 18 C-22 34-25 57-6 82 C8 54 30 38 31 12 C32-4 12-16-20-21Z" fill="#E1C39E" opacity=".78"/>
  </g>
  <text x="900" y="400" fill="#F3EDE3" text-anchor="middle" font-family="Cormorant Garamond, Garamond, Georgia, serif" font-size="106" letter-spacing="26">WRAPPED.CO</text>
  <line x1="835" y1="468" x2="965" y2="468" stroke="#B08A5A" stroke-width="3"/>
</svg>

